<?xml version="1.0" standalone="no"?>
<!DOCTYPE svg PUBLIC "-//W3C//DTD SVG 20010904//EN"
 "http://www.w3.org/TR/2001/REC-SVG-20010904/DTD/svg10.dtd">
<svg version="1.0" xmlns="http://www.w3.org/2000/svg"
 width="336.000000pt" height="266.000000pt" viewBox="0 0 336.000000 266.000000"
 preserveAspectRatio="xMidYMid meet">

<g transform="translate(0.000000,266.000000) scale(0.100000,-0.100000)"
fill="#000000" stroke="none">
<path d="M0 1330 l0 -1330 1680 0 1680 0 0 1330 0 1330 -1680 0 -1680 0 0
-1330z m2245 975 l25 -24 0 -433 c0 -259 -5 -451 -11 -478 -21 -94 -103 -169
-207 -191 -178 -37 -289 151 -172 293 44 54 99 76 213 86 54 5 101 12 104 16
9 9 17 368 9 400 -8 34 -10 34 -336 -9 -359 -46 -360 -46 -368 -59 -4 -6 -9
-157 -12 -336 l-5 -325 -28 -57 c-45 -92 -122 -138 -230 -138 -79 0 -122 25
-155 90 -37 74 -26 141 37 213 42 47 99 67 212 75 l94 7 6 90 c4 50 7 217 8
371 1 269 2 282 22 308 11 14 28 30 38 35 18 10 608 85 704 90 18 1 37 -8 52
-24z m-1877 -1450 c5 -5 122 -338 122 -347 0 -5 -20 -8 -44 -8 -41 0 -45 2
-51 30 l-7 30 -73 0 c-72 0 -73 0 -84 -30 -9 -27 -14 -30 -50 -30 -23 0 -41 3
-41 8 0 4 28 87 62 185 l63 179 50 -7 c27 -3 51 -8 53 -10z m234 -116 c3 -123
4 -132 27 -150 31 -25 54 -24 85 4 24 21 26 29 32 150 l7 127 39 0 38 0 0
-130 c0 -150 -11 -189 -62 -220 -48 -29 -143 -28 -189 3 -53 35 -59 57 -59
210 l0 137 39 0 39 0 4 -131z m503 109 c63 -32 95 -86 95 -163 0 -64 -16 -102
-60 -138 -41 -35 -89 -47 -187 -47 l-83 0 0 186 0 186 108 -7 c59 -4 116 -12
127 -17z m225 -163 l0 -185 -45 0 -45 0 0 185 0 185 45 0 45 0 0 -185z m303
169 c74 -38 108 -89 110 -168 2 -77 -33 -133 -102 -168 -30 -16 -66 -28 -80
-28 -157 0 -253 171 -168 299 48 72 164 103 240 65z m373 -4 c32 -20 54 -63
54 -107 0 -44 -20 -77 -62 -103 l-29 -17 51 -56 c27 -30 50 -58 50 -61 0 -3
-21 -6 -47 -6 -46 -1 -50 2 -100 57 l-53 58 0 -57 0 -58 -45 0 -45 0 0 186 0
186 103 -4 c63 -2 110 -9 123 -18z m367 4 c76 -39 107 -88 107 -171 0 -115
-70 -183 -188 -183 -91 0 -143 33 -177 112 -27 65 -13 150 33 202 46 51 162
72 225 40z m395 -30 c53 -55 41 -135 -26 -180 l-32 -22 56 -61 56 -61 -58 0
-59 1 -45 55 c-42 51 -45 54 -52 32 -3 -13 -6 -38 -7 -55 -1 -32 -3 -33 -41
-33 l-40 0 0 186 0 186 108 -7 c105 -6 108 -7 140 -41z m294 28 c9 -10 118
-321 118 -338 0 -10 -13 -14 -44 -14 -40 0 -44 2 -49 30 l-6 30 -75 0 -74 0
-7 -30 c-6 -28 -10 -30 -51 -30 -24 0 -44 1 -44 3 0 4 105 303 119 341 11 27
13 28 59 21 26 -4 50 -10 54 -13z m-2594 -463 l14 -21 19 21 c29 31 33 26 10
-13 -12 -18 -21 -44 -22 -57 -1 -19 -3 -18 -11 10 -5 18 -16 44 -25 57 -8 13
-11 24 -7 24 5 0 15 -9 22 -21z m184 4 c43 -39 -4 -109 -57 -85 -33 15 -43 57
-20 82 22 24 52 26 77 3z m102 -71 c17 2 22 12 27 48 5 41 6 43 13 18 11 -38
-6 -82 -33 -86 -36 -6 -51 15 -50 67 l2 46 10 -48 c9 -40 14 -47 31 -45z m151
72 c10 -10 13 -23 9 -33 -4 -9 -7 -26 -7 -39 1 -21 0 -22 -16 -8 -23 21 -38
20 -44 -1 -3 -10 -5 8 -6 40 -1 54 0 57 23 57 14 0 32 -7 41 -16z m223 -41
c-1 -36 -3 -45 -5 -25 -5 36 -10 39 -28 15 -13 -17 -14 -17 -33 1 -20 18 -21
17 -25 -16 -2 -22 -4 -15 -5 22 l-1 55 24 -28 24 -27 22 30 c13 16 24 30 26
30 2 0 2 -26 1 -57z m137 37 c37 -41 -14 -107 -64 -81 -47 26 -30 101 24 101
12 0 30 -9 40 -20z m152 -9 c26 -54 -40 -107 -81 -65 -19 19 -21 65 -4 82 21
21 71 10 85 -17z m129 4 c13 -20 15 -31 6 -49 -11 -24 -62 -43 -82 -31 -11 7
-14 88 -3 98 16 17 63 6 79 -18z m204 3 l17 -22 12 22 c6 12 16 22 21 22 5 0
1 -15 -10 -32 -11 -18 -20 -43 -20 -56 0 -13 -4 -20 -10 -17 -5 3 -10 15 -10
26 0 11 -7 33 -15 49 -18 35 -11 39 15 8z m185 2 c41 -46 -29 -116 -75 -75
-24 22 -26 52 -3 77 21 24 55 23 78 -2z m70 -47 c4 -15 13 -23 25 -23 19 0 23
8 34 70 2 14 3 3 2 -24 -2 -92 -70 -92 -72 0 -1 27 0 38 2 24 3 -14 7 -35 9
-47z m172 55 c9 -15 11 -98 2 -98 -4 0 -12 7 -19 15 -16 19 -30 19 -30 -1 0
-8 -4 -12 -10 -9 -5 3 -10 28 -10 56 0 48 1 49 29 49 17 0 33 -6 38 -12z m233
-38 c0 -27 -4 -50 -10 -50 -5 0 -10 12 -10 28 -1 26 -1 26 -15 8 -14 -19 -15
-19 -35 -1 -20 18 -20 18 -20 -14 0 -19 -4 -30 -10 -26 -13 8 -13 95 -1 95 5
0 18 -12 29 -26 l19 -27 22 32 c12 17 24 31 27 31 2 0 4 -22 4 -50z m60 -1 c0
-36 2 -40 23 -37 18 2 23 10 25 46 3 46 22 59 22 15 0 -49 -12 -73 -36 -79
-36 -9 -54 12 -54 63 0 27 4 42 10 38 6 -3 10 -24 10 -46z m160 41 c0 -5 -7
-10 -15 -10 -21 0 -19 -17 5 -30 41 -22 15 -73 -27 -54 -16 7 -15 8 5 11 27 5
28 11 1 39 -12 13 -19 30 -16 38 7 17 47 22 47 6z m70 -45 c0 -24 -4 -47 -10
-50 -6 -4 -10 15 -10 50 0 35 4 54 10 50 6 -3 10 -26 10 -50z m120 45 c0 -5
-11 -10 -24 -10 -13 0 -29 -6 -35 -14 -19 -22 3 -56 36 -56 20 0 24 -3 16 -11
-17 -17 -63 -2 -72 24 -9 22 2 55 23 69 16 11 56 10 56 -2z"/>
<path d="M1825 2223 c-355 -41 -335 -31 -335 -159 0 -82 1 -84 23 -79 12 2
155 20 317 40 162 19 314 38 338 41 l42 5 0 79 c0 43 -3 85 -6 94 -8 21 -22
20 -379 -21z"/>
<path d="M2063 1489 c-104 -13 -163 -65 -163 -143 0 -48 13 -72 50 -91 42 -22
89 -19 146 10 57 29 87 70 103 143 19 88 17 92 -31 91 -24 -1 -71 -5 -105 -10z"/>
<path d="M1243 1350 c-98 -20 -146 -97 -113 -184 10 -28 57 -56 92 -56 110 0
197 90 198 203 l0 47 -67 -1 c-38 -1 -87 -5 -110 -9z"/>
<path d="M308 754 c-12 -21 -40 -116 -35 -120 3 -3 21 -2 41 1 24 5 36 13 35
24 0 25 -35 105 -41 95z"/>
<path d="M960 685 l0 -107 57 4 c70 6 103 37 103 98 0 59 -39 97 -107 106
l-53 7 0 -108z"/>
<path d="M1479 761 c-24 -24 -29 -38 -29 -76 0 -40 5 -52 34 -81 39 -39 75
-44 122 -15 93 57 52 201 -58 201 -30 0 -46 -7 -69 -29z"/>
<path d="M1870 746 l0 -46 45 0 c39 0 47 4 57 25 15 34 -5 55 -61 62 l-41 6 0
-47z"/>
<path d="M2226 767 c-23 -19 -30 -33 -33 -73 -5 -43 -2 -54 22 -82 50 -60 135
-49 169 22 19 40 20 53 6 93 -22 61 -111 82 -164 40z"/>
<path d="M2600 745 l0 -45 50 0 c38 0 52 4 60 19 20 39 -16 71 -81 71 -28 0
-29 -2 -29 -45z"/>
<path d="M2988 722 c-9 -32 -20 -66 -24 -76 -7 -17 -4 -18 36 -12 25 4 46 8
47 10 2 1 -7 32 -20 69 l-22 67 -17 -58z"/>
<path d="M584 376 c-12 -31 0 -51 31 -51 27 0 30 3 30 30 0 25 -4 30 -28 33
-17 2 -29 -2 -33 -12z"/>
<path d="M856 393 c-8 -8 -8 -53 0 -53 12 0 44 21 44 30 0 12 -36 31 -44 23z"/>
<path d="M1207 389 c-23 -13 -22 -56 2 -69 15 -7 23 -6 35 6 34 33 3 85 -37
63z"/>
<path d="M1335 370 c-4 -12 -1 -27 5 -35 27 -33 78 -5 65 35 -4 14 -15 20 -35
20 -20 0 -31 -6 -35 -20z"/>
<path d="M1480 359 c0 -38 1 -40 28 -37 21 2 28 9 30 30 3 22 -2 30 -23 38
-36 14 -35 15 -35 -31z"/>
<path d="M1861 376 c-20 -24 4 -58 37 -54 23 2 27 8 27 33 0 25 -4 31 -26 33
-14 2 -31 -4 -38 -12z"/>
<path d="M2134 385 c-3 -8 -3 -22 0 -30 4 -13 10 -14 26 -5 11 6 20 15 20 20
0 5 -9 14 -20 20 -16 9 -22 8 -26 -5z"/>
</g>
</svg>
